<?xml version="1.0" encoding="UTF-8"?>
<svg id="Warstwa_1" data-name="Warstwa 1" xmlns="http://www.w3.org/2000/svg" viewBox="0 0 280.21 280.28">
  <defs>
    <style>
      .cls-1 {
        stroke: #d7d7d7;
        stroke-width: 1.92px;
      }

      .cls-1, .cls-2 {
        fill: #fff;
      }

      .cls-3, .cls-2 {
        stroke-width: 0px;
      }

      .cls-4 {
        opacity: .49;
      }
    </style>
  </defs>
  <g>
    <g id="Warstwa_1-2" data-name="Warstwa 1">
      <g id="Warstwa_1-3" data-name="Warstwa 1" class="cls-4">
        <g id="Warstwa_2" data-name="Warstwa 2">
          <circle class="cls-2" cx="140.11" cy="140.14" r="138.79"/>
        </g>
      </g>
    </g>
    <g id="Warstwa_2-2" data-name="Warstwa 2">
      <g id="Warstwa_1-4" data-name="Warstwa 1">
        <g id="Warstwa_2-3" data-name="Warstwa 2">
          <circle class="cls-1" cx="140.11" cy="140.14" r="132.29"/>
        </g>
      </g>
    </g>
  </g>
  <g>
    <g>
      <path class="cls-3" d="m48.95,142.13v-65.95h17.5v24.72l19.68-24.72h20.47l-21.95,25.41,25.41,40.54h-21.26l-16.12-26.69-6.23,7.32v19.38h-17.5Z"/>
      <path class="cls-3" d="m112.62,116.43v-40.24h17.5v38.66c0,3.63.84,6.59,2.52,8.9,1.68,2.31,4.46,3.46,8.36,3.46s6.66-1.17,8.3-3.51c1.65-2.34,2.47-5.29,2.47-8.85v-38.66h17.7v40.24c0,5.6-1.22,10.46-3.66,14.58-2.44,4.12-5.78,7.28-10.03,9.49-4.25,2.21-9.15,3.31-14.68,3.31s-10.45-1.09-14.73-3.26c-4.29-2.17-7.65-5.32-10.08-9.44-2.44-4.12-3.66-9.01-3.66-14.68Z"/>
      <path class="cls-3" d="m180.94,142.13v-65.95h26.89c7.05,0,12.72,1.86,17.01,5.59,4.29,3.72,6.43,9.15,6.43,16.26,0,4.48-.99,8.39-2.97,11.72-1.98,3.33-4.68,5.9-8.11,7.71-3.43,1.81-7.38,2.72-11.86,2.72h-10.28v21.95h-17.1Zm17.1-35.69h8.31c2.37,0,4.25-.76,5.64-2.27,1.38-1.52,2.08-3.46,2.08-5.83,0-2.5-.66-4.51-1.98-6.03-1.32-1.52-3.26-2.27-5.83-2.27h-8.21v16.41Z"/>
    </g>
    <g>
      <path class="cls-3" d="m48.95,204.09v-49.21h16.68c3.39,0,6.2.56,8.41,1.7,2.21,1.13,3.86,2.65,4.94,4.54,1.08,1.89,1.62,4,1.62,6.31,0,2.07-.44,3.86-1.33,5.39-.89,1.52-1.96,2.73-3.21,3.61-1.25.89-2.42,1.43-3.5,1.62.98.15,2.09.47,3.32.96,1.23.49,2.4,1.19,3.5,2.1,1.11.91,2.02,2.12,2.73,3.62.71,1.5,1.07,3.36,1.07,5.57,0,3.49-.82,6.25-2.47,8.26-1.65,2.02-3.86,3.44-6.64,4.28-2.78.84-5.89,1.25-9.33,1.25h-15.79Zm6.86-28.7h8.78c1.48,0,2.91-.25,4.32-.74s2.56-1.28,3.47-2.36c.91-1.08,1.36-2.51,1.36-4.28,0-1.97-.45-3.46-1.36-4.46-.91-1.01-2.07-1.68-3.47-2.03-1.4-.34-2.84-.52-4.32-.52h-8.78v14.39Zm0,22.58h8.56c1.28,0,2.59-.07,3.95-.22,1.35-.15,2.62-.49,3.8-1.03,1.18-.54,2.14-1.35,2.88-2.43s1.11-2.53,1.11-4.35c0-2.36-.6-4.14-1.81-5.35-1.21-1.21-2.67-2.03-4.39-2.47s-3.42-.66-5.09-.66h-9v16.53Z"/>
      <path class="cls-3" d="m92.48,204.09v-49.21h7.08v49.21h-7.08Z"/>
      <path class="cls-3" d="m110.78,204.09v-49.21h7.08v42.94h25.6v6.27h-32.69Z"/>
      <path class="cls-3" d="m151.21,204.09v-49.21h30.99v6.27h-23.91v14.31h18v6.35h-18v15.94h25.68v6.35h-32.76Z"/>
      <path class="cls-3" d="m206.62,204.09v-43.02h-17.64v-6.2h42.28v6.2h-17.56v43.02h-7.08Z"/>
    </g>
  </g>
</svg>