<?xml version="1.0" encoding="UTF-8"?>
<svg id="Warstwa_1" data-name="Warstwa 1" xmlns="http://www.w3.org/2000/svg" viewBox="0 0 280.21 280.28">
  <defs>
    <style>
      .cls-1 {
        stroke: #d7d7d7;
        stroke-width: 1.92px;
      }

      .cls-1, .cls-2 {
        fill: #fff;
      }

      .cls-3, .cls-2 {
        stroke-width: 0px;
      }

      .cls-4 {
        opacity: .49;
      }
    </style>
  </defs>
  <g>
    <g id="Warstwa_1-2" data-name="Warstwa 1">
      <g id="Warstwa_1-3" data-name="Warstwa 1" class="cls-4">
        <g id="Warstwa_2" data-name="Warstwa 2">
          <circle class="cls-2" cx="140.11" cy="140.14" r="138.79"/>
        </g>
      </g>
    </g>
    <g id="Warstwa_2-2" data-name="Warstwa 2">
      <g id="Warstwa_1-4" data-name="Warstwa 1">
        <g id="Warstwa_2-3" data-name="Warstwa 2">
          <circle class="cls-1" cx="140.11" cy="140.14" r="132.29"/>
        </g>
      </g>
    </g>
  </g>
  <g>
    <path class="cls-3" d="m75.68,42.96v9.83h19.66c2.11,0,3.92,1.38,4.61,3.38l9.18,81.89c.84,7.41,7.22,13.09,14.67,13.09h60.01v-9.83h-60.01c-2.53,0-4.61-1.84-4.88-4.34l-.61-5.49h62.35c6.99,0,13.09-4.99,14.47-11.82l9.41-47.15h-92.87l-2.11-18.74-.15-.46c-1.88-6.14-7.6-10.33-14.05-10.37h-19.66Zm98.28,108.19c-5.41,0-9.83,4.42-9.83,9.83s4.42,9.83,9.83,9.83,9.83-4.42,9.83-9.83-4.42-9.83-9.83-9.83Zm-49.14,0c-5.41,0-9.83,4.42-9.83,9.83s4.42,9.83,9.83,9.83,9.83-4.42,9.83-9.83-4.42-9.83-9.83-9.83Zm-12.06-68.8h79.78l-7.06,35.36c-.5,2.34-2.46,3.95-4.84,3.95h-63.46l-4.42-39.31Z"/>
    <g>
      <path class="cls-3" d="m45.84,218.62v-27.34h7.25v10.25l8.16-10.25h8.48l-9.1,10.53,10.53,16.8h-8.81l-6.68-11.07-2.58,3.03v8.03h-7.25Z"/>
      <path class="cls-3" d="m72.23,207.96v-16.68h7.25v16.03c0,1.5.35,2.73,1.04,3.69s1.85,1.43,3.46,1.43,2.76-.49,3.44-1.46c.68-.97,1.02-2.19,1.02-3.67v-16.03h7.34v16.68c0,2.32-.51,4.34-1.52,6.05-1.01,1.71-2.4,3.02-4.16,3.94s-3.79,1.37-6.09,1.37-4.33-.45-6.11-1.35c-1.78-.9-3.17-2.21-4.18-3.91s-1.52-3.74-1.52-6.09Z"/>
      <path class="cls-3" d="m100.56,218.62v-27.34h11.15c2.92,0,5.27.77,7.05,2.32,1.78,1.54,2.66,3.79,2.66,6.74,0,1.86-.41,3.48-1.23,4.86-.82,1.38-1.94,2.45-3.36,3.2-1.42.75-3.06,1.13-4.92,1.13h-4.26v9.1h-7.09Zm7.09-14.8h3.44c.98,0,1.76-.31,2.34-.94s.86-1.44.86-2.42c0-1.04-.27-1.87-.82-2.5-.55-.63-1.35-.94-2.42-.94h-3.4v6.8Z"/>
      <path class="cls-3" d="m133.1,218.62v-27.34h9.26c1.89,0,3.44.31,4.67.94s2.14,1.47,2.75,2.52c.6,1.05.9,2.22.9,3.5,0,1.15-.25,2.15-.74,2.99-.49.85-1.09,1.52-1.78,2.01-.7.49-1.35.79-1.95.9.55.08,1.16.26,1.84.53s1.33.66,1.95,1.17c.61.51,1.12,1.17,1.52,2.01.39.83.59,1.86.59,3.09,0,1.94-.46,3.47-1.37,4.59-.92,1.12-2.15,1.91-3.69,2.38-1.55.47-3.27.7-5.18.7h-8.77Zm3.81-15.94h4.88c.82,0,1.62-.14,2.4-.41.78-.27,1.42-.71,1.93-1.31.5-.6.76-1.39.76-2.38,0-1.09-.25-1.92-.76-2.48-.51-.56-1.15-.94-1.93-1.13-.78-.19-1.58-.29-2.4-.29h-4.88v7.99Zm0,12.54h4.75c.71,0,1.44-.04,2.19-.12.75-.08,1.45-.27,2.11-.57.66-.3,1.19-.75,1.6-1.35.41-.6.61-1.41.61-2.42,0-1.31-.33-2.3-1-2.97-.67-.67-1.48-1.13-2.44-1.37-.96-.25-1.9-.37-2.83-.37h-5v9.18Z"/>
      <path class="cls-3" d="m157.28,218.62v-27.34h3.94v27.34h-3.94Z"/>
      <path class="cls-3" d="m167.44,218.62v-27.34h3.94v23.85h14.22v3.48h-18.16Z"/>
      <path class="cls-3" d="m189.9,218.62v-27.34h17.21v3.48h-13.28v7.95h10v3.52h-10v8.85h14.26v3.52h-18.2Z"/>
      <path class="cls-3" d="m220.68,218.62v-23.9h-9.8v-3.44h23.48v3.44h-9.75v23.9h-3.94Z"/>
    </g>
  </g>
</svg>