<?xml version="1.0" encoding="utf-8"?>
<!-- Generator: Adobe Illustrator 14.0.0, SVG Export Plug-In . SVG Version: 6.00 Build 43363)  -->
<!DOCTYPE svg PUBLIC "-//W3C//DTD SVG 1.1//EN" "http://www.w3.org/Graphics/SVG/1.1/DTD/svg11.dtd">
<svg version="1.1" xmlns="http://www.w3.org/2000/svg" xmlns:xlink="http://www.w3.org/1999/xlink" x="0px" y="0px"
	 width="280.211px" height="280.279px" viewBox="0 0 280.211 280.279" enable-background="new 0 0 280.211 280.279"
	 xml:space="preserve">
<g id="Warstwa_1">
	<g id="Warstwa_1_2_" opacity="0.49">
		<g id="Warstwa_2_1_">
			<circle fill="#FFFFFF" cx="140.105" cy="140.139" r="138.786"/>
		</g>
	</g>
</g>
<g id="Warstwa_2">
	<g id="Warstwa_1_1_">
		<g id="Warstwa_2_2_">
			<circle fill="#ffffff" stroke="#D7D7D7" stroke-width="1.9206" cx="140.105" cy="140.139" r="132.286"/>
		</g>
	</g>
</g>
<g id="Warstwa_3">
	<g>
		<g>
			<path fill="#1A171B" d="M216.04,80.603l-25.667,56.458l-66.296,3.603L87.764,79.016l-31.593,2.233l1.241-10.559l37.154-2.366
				l14.351,26.262l92.518-1.021l4.775-13.712L216.04,80.603z M185.921,127.592l11.279-25.128l-15.515,0.437l-2.909,24.755
				L185.921,127.592z M170.302,128.92l3.066-26.093l-22.99,0.082l-0.39,26.788L170.302,128.92z M139.568,130.708l0.823-27.237
				l-25.824,0.509l14.612,27.481L139.568,130.708z"/>
			<path fill="#1A171B" d="M195.324,153.627c2.019,6.304-2.13,13.264-9.271,15.541c-7.146,2.3-14.589-0.954-16.589-7.231
				c-2.019-6.304,2.129-13.239,9.272-15.539C185.882,144.097,193.328,147.351,195.324,153.627z M184.259,163.579
				c3.636-1.166,5.74-4.701,4.71-7.891c-1.024-3.214-4.805-4.848-8.417-3.677c-3.632,1.143-5.759,4.674-4.734,7.889
				C176.848,163.088,180.625,164.747,184.259,163.579z"/>
			<path fill="#1A171B" d="M151.154,155.192c2.019,6.305-2.151,13.26-9.296,15.535c-7.145,2.301-14.565-0.95-16.588-7.229
				c-2.018-6.304,2.154-13.26,9.297-15.536C141.713,145.662,149.134,148.912,151.154,155.192z M140.066,165.142
				c3.634-1.167,5.738-4.702,4.711-7.916c-1.027-3.19-4.781-4.845-8.417-3.678c-3.633,1.167-5.738,4.701-4.734,7.891
				C132.654,164.651,136.434,166.284,140.066,165.142z"/>
		</g>
	</g>
	<g>
		<path d="M70.917,202.247l10.138,13.394h-8.769l-8.251-11.581v11.581h-7.289v-26.196h7.289v11.322l8.325-11.322h8.695
			L70.917,202.247z"/>
		<path d="M90.563,189.444v14.948c0,1.48,0.327,2.621,0.98,3.423c0.653,0.802,1.646,1.202,2.979,1.202s2.337-0.407,3.016-1.221
			c0.678-0.814,1.018-1.948,1.018-3.404v-14.948h7.252v14.948c0,2.467-0.5,4.563-1.499,6.29s-2.362,3.028-4.089,3.903
			c-1.727,0.876-3.675,1.313-5.846,1.313c-2.171,0-4.088-0.431-5.753-1.295c-1.665-0.863-2.966-2.158-3.904-3.885
			s-1.406-3.835-1.406-6.327v-14.948H90.563z"/>
		<path d="M116.944,206.872v8.769h-7.289v-26.196h10.878c3.156,0,5.568,0.796,7.233,2.387s2.497,3.719,2.497,6.383
			c0,1.652-0.37,3.133-1.11,4.439c-0.739,1.308-1.844,2.338-3.312,3.09c-1.468,0.753-3.237,1.129-5.309,1.129H116.944z
			 M122.9,198.214c0-1.924-1.061-2.887-3.182-2.887h-2.775v5.81h2.775C121.84,201.136,122.9,200.162,122.9,198.214z"/>
		<path d="M159.585,204.429c0.999,1.184,1.499,2.578,1.499,4.181c0,2.122-0.722,3.824-2.165,5.106
			c-1.442,1.282-3.533,1.924-6.271,1.924h-9.693v-26.085h9.546c2.614,0,4.6,0.58,5.957,1.739c1.356,1.159,2.035,2.75,2.035,4.772
			c0,1.678-0.45,3.034-1.351,4.07c-0.901,1.036-2.054,1.702-3.46,1.998C157.285,202.481,158.587,203.246,159.585,204.429z
			 M146.321,200.988h5.624c1.652,0,2.916-0.382,3.792-1.146c0.875-0.765,1.313-1.838,1.313-3.219c0-1.332-0.432-2.381-1.295-3.146
			s-2.183-1.146-3.959-1.146h-5.476V200.988z M156.145,211.607c0.974-0.813,1.461-1.961,1.461-3.44c0-1.455-0.499-2.596-1.498-3.423
			c-0.999-0.826-2.387-1.239-4.162-1.239h-5.624v9.324h5.697C153.795,212.829,155.17,212.422,156.145,211.607z"/>
		<path d="M168.669,189.555v26.085h-3.367v-26.085H168.669z"/>
		<path d="M177.438,213.013h9.25v2.627H174.07v-26.085h3.367V213.013z"/>
		<path d="M193.496,192.294v8.917h9.916v2.59h-9.916v9.102h11.025v2.738h-14.393v-26.085h14.393v2.738H193.496z"/>
		<path d="M224.834,189.555v2.738h-7.362v23.347h-3.367v-23.347h-7.363v-2.738H224.834z"/>
	</g>
</g>
<g id="Warstwa_4">
</g>
</svg>
