<?xml version="1.0" encoding="utf-8"?>
<!-- Generator: Adobe Illustrator 14.0.0, SVG Export Plug-In . SVG Version: 6.00 Build 43363)  -->
<!DOCTYPE svg PUBLIC "-//W3C//DTD SVG 1.1//EN" "http://www.w3.org/Graphics/SVG/1.1/DTD/svg11.dtd">
<svg version="1.1" id="Warstwa_1" xmlns="http://www.w3.org/2000/svg" xmlns:xlink="http://www.w3.org/1999/xlink" x="0px" y="0px"
	 width="85px" height="46.25px" viewBox="0 0 85 46.25" enable-background="new 0 0 85 46.25" xml:space="preserve">
<g>
	<g opacity="0.25">
		<path d="M85,46H16.339C5.293,46,0,42.632,0,31.586V16.42C0,5.374,5.293,1,16.339,1H85C85.047,20.253,84.958,20.086,85,46z"/>
	</g>
	<g>
		<path fill="#F9F9F9" d="M85,45H16.339C5.293,45,0,41.632,0,30.586V15.42C0,4.374,5.293,0,16.339,0H85
			C85.047,19.253,84.958,19.086,85,45z"/>
	</g>
</g>
<g>
	<g>
		<path fill="#1A171B" d="M-296.458-264.715l-6.671,14.673l-17.23,0.936l-9.437-16.021l-8.211,0.58l0.323-2.744l9.656-0.615
			l3.73,6.825l24.045-0.265l1.241-3.564L-296.458-264.715z M-304.286-252.503l2.932-6.53l-4.032,0.114l-0.756,6.433
			L-304.286-252.503z M-308.345-252.158l0.797-6.781l-5.976,0.021l-0.101,6.961L-308.345-252.158z M-316.333-251.694l0.214-7.078
			l-6.712,0.132l3.798,7.142L-316.333-251.694z"/>
		<path fill="#1A171B" d="M-301.842-245.737c0.525,1.638-0.553,3.448-2.409,4.039c-1.857,0.597-3.792-0.248-4.312-1.88
			c-0.524-1.638,0.554-3.44,2.41-4.038C-304.296-248.214-302.361-247.368-301.842-245.737z M-304.718-243.15
			c0.945-0.304,1.492-1.222,1.225-2.051c-0.266-0.835-1.249-1.26-2.188-0.956c-0.944,0.297-1.497,1.215-1.23,2.05
			C-306.644-243.278-305.662-242.847-304.718-243.15z"/>
		<path fill="#1A171B" d="M-313.322-245.33c0.524,1.638-0.559,3.446-2.416,4.037c-1.856,0.598-3.785-0.247-4.311-1.878
			c-0.525-1.639,0.56-3.446,2.417-4.038C-315.776-247.807-313.847-246.962-313.322-245.33z M-316.203-242.744
			c0.944-0.304,1.492-1.222,1.224-2.058c-0.267-0.829-1.243-1.259-2.187-0.956c-0.945,0.303-1.492,1.221-1.231,2.051
			C-318.13-242.872-317.147-242.447-316.203-242.744z"/>
	</g>
</g>
<g>
	<g>
		<path fill="#1A171B" d="M63.542,12.285l-6.671,14.673l-17.23,0.936l-9.437-16.021l-8.211,0.58l0.323-2.744l9.656-0.615l3.73,6.825
			l24.044-0.265l1.241-3.564L63.542,12.285z M55.714,24.496l2.932-6.53l-4.032,0.114l-0.756,6.434L55.714,24.496z M51.654,24.842
			l0.797-6.781l-5.975,0.021l-0.102,6.961L51.654,24.842z M43.667,25.307l0.214-7.079l-6.712,0.132l3.798,7.142L43.667,25.307z"/>
		<path fill="#1A171B" d="M58.158,31.264c0.524,1.638-0.554,3.447-2.41,4.039c-1.857,0.597-3.791-0.248-4.312-1.881
			c-0.524-1.638,0.554-3.439,2.41-4.037C55.704,28.786,57.639,29.633,58.158,31.264z M55.281,33.85
			c0.945-0.303,1.492-1.222,1.225-2.051c-0.266-0.836-1.248-1.26-2.188-0.955c-0.943,0.297-1.496,1.215-1.23,2.05
			C53.356,33.722,54.338,34.152,55.281,33.85z"/>
		<path fill="#1A171B" d="M46.678,31.67c0.525,1.639-0.559,3.445-2.416,4.037c-1.856,0.598-3.785-0.247-4.311-1.879
			c-0.525-1.639,0.56-3.445,2.417-4.037C44.225,29.193,46.153,30.037,46.678,31.67z M43.797,34.256
			c0.943-0.304,1.492-1.223,1.225-2.058c-0.268-0.829-1.243-1.259-2.188-0.956c-0.945,0.304-1.492,1.222-1.231,2.051
			C41.87,34.128,42.853,34.553,43.797,34.256z"/>
	</g>
</g>
</svg>
